<?xml version="1.0" encoding="UTF-8"?>
<!DOCTYPE svg PUBLIC "-//W3C//DTD SVG 1.1//EN" "http://www.w3.org/Graphics/SVG/1.1/DTD/svg11.dtd">
<!-- Creator: CorelDRAW -->
<svg xmlns="http://www.w3.org/2000/svg" xml:space="preserve" width="695px" height="708px" style="shape-rendering:geometricPrecision; text-rendering:geometricPrecision; image-rendering:optimizeQuality; fill-rule:evenodd; clip-rule:evenodd"
viewBox="0 0 695 708.002"
 xmlns:xlink="http://www.w3.org/1999/xlink">
 <defs>
  <style type="text/css">
   <![CDATA[
    .fil1 {fill:#3D3D3D}
    .fil0 {fill:#5F9459}
   ]]>
  </style>
 </defs>
 <g id="Camada_x0020_1">
  <metadata id="CorelCorpID_0Corel-Layer"/>
  <g id="_328579648">
   <path id="_328135680" class="fil0" d="M297.491 355.939c0,15.5445 5.36694,31.8532 8.72128,46.5225l16.33 69.0368c5.83584,27.4489 9.01892,14.6162 25.8237,27.8316 21.2941,16.7481 7.8886,18.502 57.1348,2.67402l289.501 -87.2093c-0.243308,-11.915 -5.33505,-29.9694 -8.22049,-41.4651l-30.2493 -123.892c-13.317,0.324804 -32.4249,8.13073 -45.2694,12.1855 -15.6118,4.93111 -29.067,8.50278 -44.1922,13.3642 -21.293,6.84332 -256.554,80.6352 -269.579,80.9518z"/>
   <path id="_328134048" class="fil1" d="M251.329 165.357c0.843309,11.0729 33.2351,143.912 38.4686,165.358l119.979 -37.043c18.7926,-5.77797 41.4391,-12.6744 60.097,-18.4028l60.9946 -17.4237c-6.01419,-28.2131 -12.8221,-53.2537 -19.4894,-82.401l-18.9804 -82.9573c-14.8099,0.361418 -153.157,45.9485 -181.546,53.8395 -9.94254,2.7626 -18.8268,5.49214 -30.2044,9.03073 -10.0925,3.1382 -21.4583,5.87836 -29.3186,9.99924z"/>
   <path id="_328131240" class="fil1" d="M202.602 608.179c0,79.4707 88.7813,137.166 149.463,70.8509 22.8331,-24.9532 35.68,-68.9269 19.8331,-110.126 -6.29411,-16.3618 -16.9559,-30.0379 -28.956,-41.2253 -35.5595,-27.0568 -82.6691,-27.7512 -113.548,8.88545 -13.3063,15.7878 -26.7922,42.7973 -26.7922,71.6151z"/>
   <path id="_328133616" class="fil1" d="M-0.00118111 30.8292c0,15.9709 13.6122,25.9182 20.517,28.0264l56.4202 0 25.6465 -14.0126 35.9044 0c0.322442,15.8457 46.5958,203.69 51.2918,224.214 17.2689,75.475 35.2501,147.411 51.2907,224.214l41.034 -11.211c-1.17284,-15.3992 -9.2386,-43.1906 -12.8233,-58.8568 -4.53544,-19.8201 -9.21616,-37.4481 -13.878,-57.7029 -27.2197,-118.266 -55.1068,-233.178 -81.0108,-351.486l-74.3742 0 -33.3391 -14.0138 -33.3391 0c-18.73,0 -33.3402,10.3595 -33.3402,30.8292z"/>
   <path id="_328133856" class="fil1" d="M392.38 552.126l7.69372 44.8418c11.8819,-0.289371 26.6091,-5.8949 37.578,-9.38034 13.1693,-4.18466 22.8048,-7.08781 35.8855,-11.2311 25.2898,-8.0138 47.7722,-13.8307 72.4206,-21.7536l146.478 -44.517 -10.2579 -44.843c-18.1973,0.442914 -250.404,76.8533 -289.798,86.8833z"/>
  </g>
 </g>
</svg>
